<svg xmlns="http://www.w3.org/2000/svg" width="350" height="350" viewBox="0 0 350 350" fill="none"><path d="M131.25 142.188C131.25 130.108 121.454 120.312 109.375 120.312H98.4375C74.2725 120.312 54.6875 139.897 54.6875 164.062V196.875C54.6875 221.04 74.2725 240.625 98.4375 240.625H109.375C121.454 240.625 131.25 230.829 131.25 218.75V142.188ZM251.562 240.625C275.728 240.625 295.312 221.04 295.312 196.875V164.062C295.312 139.897 275.728 120.312 251.562 120.312H240.625C228.546 120.312 218.75 130.108 218.75 142.188V218.75C218.75 230.829 228.546 240.625 240.625 240.625H251.562ZM175 0C77.3691 0 3.13086 81.2314 0 175V185.938C0 191.98 4.89453 196.875 10.9375 196.875H21.875C27.918 196.875 32.8125 191.98 32.8125 185.938V175C32.8125 96.5986 96.5986 32.8125 175 32.8125C253.401 32.8125 317.188 96.5986 317.188 175H317.105C317.16 176.661 317.188 288.285 317.188 288.285C317.188 304.247 304.247 317.188 288.285 317.188H218.75C218.75 299.065 204.06 284.375 185.938 284.375H164.062C145.94 284.375 131.25 299.065 131.25 317.188C131.25 335.31 145.94 350 164.062 350H288.285C322.369 350 350 322.369 350 288.285V175C346.869 81.2314 272.631 0 175 0Z" fill="#D1D1D1"></path></svg>