<svg xmlns="http://www.w3.org/2000/svg" xmlns:xlink="http://www.w3.org/1999/xlink" fill="#000000" height="180px" width="180px" id="Layer_1" viewBox="-159.57 -159.57 681.81 681.81" xml:space="preserve" transform="rotate(180)"><g id="SVGRepo_bgCarrier" stroke-width="0"><rect x="-159.57" y="-159.57" width="681.81" height="681.81" rx="340.905" fill="#ffffff"></rect></g><g id="SVGRepo_tracerCarrier" stroke-linecap="round" stroke-linejoin="round" stroke="#CCCCCC" stroke-width="9.429342"></g><g id="SVGRepo_iconCarrier"> <g> <g> <path d="M352,341.333H36.373l323.2-323.093c4.053-4.267,3.947-10.987-0.213-15.04c-4.16-3.947-10.667-3.947-14.827,0 l-323.2,323.093V10.667C21.333,4.8,16.533,0,10.667,0C4.8,0,0,4.8,0,10.667V352c0,5.867,4.8,10.667,10.667,10.667H352 c5.867,0,10.667-4.8,10.667-10.667C362.667,346.133,357.867,341.333,352,341.333z"></path> </g> </g> </g></svg>